<?xml version="1.0" standalone="no"?><!-- Generator: Gravit.io --><svg xmlns="http://www.w3.org/2000/svg" xmlns:xlink="http://www.w3.org/1999/xlink" style="isolation:isolate" viewBox="0 0 30 30" width="30" height="30"><defs><clipPath id="_clipPath_tTGMw3rNLGeKYJGop5dXE2iesKfTCaJq"><rect width="30" height="30"/></clipPath></defs><g clip-path="url(#_clipPath_tTGMw3rNLGeKYJGop5dXE2iesKfTCaJq)"><g><path d=" M 29.431 9.358 L 15.72 0.217 C 15.252 -0.071 14.752 -0.074 14.28 0.217 L 0.569 9.358 C 0.218 9.592 0 10.01 0 10.429 L 0 19.57 C 0 19.988 0.218 20.407 0.569 20.641 L 14.28 29.783 C 14.748 30.071 15.248 30.073 15.72 29.783 L 29.431 20.641 C 29.782 20.407 30 19.988 30 19.57 L 30 10.429 C 30 10.01 29.782 9.592 29.431 9.358 L 29.431 9.358 Z  M 16.289 3.699 L 26.384 10.429 L 21.881 13.442 L 16.289 9.709 L 16.289 3.699 Z  M 13.711 3.699 L 13.711 9.709 L 8.119 13.442 L 3.616 10.429 L 13.711 3.699 Z  M 2.578 12.84 L 5.809 14.999 L 2.578 17.159 L 2.578 12.84 Z  M 13.711 26.3 L 3.616 19.57 L 8.119 16.556 L 13.711 20.289 L 13.711 26.3 Z  M 15 18.046 L 10.446 14.999 L 15 11.952 L 19.554 14.999 L 15 18.046 Z  M 16.289 26.3 L 16.289 20.289 L 21.881 16.556 L 26.384 19.57 L 16.289 26.3 Z  M 27.422 17.159 L 24.191 14.999 L 27.422 12.84 L 27.422 17.159 Z " fill="rgb(255,255,255)"/></g><g><path d=" M 25.857 49.75 L 0.136 49.75 C -1.042 49.75 -2 50.721 -2 51.913 L -2 77.587 C -2 78.779 -1.042 79.75 0.136 79.75 L 25.857 79.75 C 27.036 79.75 28 78.779 28 77.587 L 28 51.913 C 28 50.721 27.036 49.75 25.857 49.75 Z  M 7.067 75.464 L 2.621 75.464 L 2.621 61.147 L 7.074 61.147 L 7.074 75.464 L 7.067 75.464 Z  M 4.844 59.192 C 3.417 59.192 2.266 58.033 2.266 56.614 C 2.266 55.194 3.417 54.036 4.844 54.036 C 6.263 54.036 7.422 55.194 7.422 56.614 C 7.422 58.04 6.27 59.192 4.844 59.192 L 4.844 59.192 Z  M 23.734 75.464 L 19.288 75.464 L 19.288 68.5 C 19.288 66.839 19.254 64.703 16.978 64.703 C 14.661 64.703 14.306 66.511 14.306 68.379 L 14.306 75.464 L 9.859 75.464 L 9.859 61.147 L 14.125 61.147 L 14.125 63.103 L 14.185 63.103 C 14.781 61.978 16.234 60.792 18.397 60.792 C 22.897 60.792 23.734 63.759 23.734 67.616 L 23.734 75.464 L 23.734 75.464 Z " fill="rgb(255,255,255)"/></g></g></svg>