<?xml version="1.0" standalone="no"?><!-- Generator: Gravit.io --><svg xmlns="http://www.w3.org/2000/svg" xmlns:xlink="http://www.w3.org/1999/xlink" style="isolation:isolate" viewBox="792.417 2617 40.667 30.5" width="40.667" height="30.5"><path d=" M 829.271 2617 L 796.229 2617 C 794.124 2617 792.417 2618.707 792.417 2620.813 L 792.417 2643.687 C 792.417 2645.793 794.124 2647.5 796.229 2647.5 L 829.271 2647.5 C 831.376 2647.5 833.083 2645.793 833.083 2643.687 L 833.083 2620.813 C 833.083 2618.707 831.376 2617 829.271 2617 Z  M 829.271 2620.813 L 829.271 2624.054 C 827.49 2625.504 824.651 2627.759 818.581 2632.512 C 817.243 2633.564 814.594 2636.092 812.75 2636.062 C 810.907 2636.092 808.256 2633.563 806.919 2632.512 C 800.85 2627.76 798.01 2625.504 796.229 2624.054 L 796.229 2620.813 L 829.271 2620.813 Z  M 796.229 2643.687 L 796.229 2628.946 C 798.049 2630.395 800.63 2632.43 804.564 2635.51 C 806.3 2636.877 809.34 2639.893 812.75 2639.875 C 816.143 2639.893 819.145 2636.92 820.935 2635.511 C 824.869 2632.43 827.451 2630.395 829.271 2628.946 L 829.271 2643.687 L 796.229 2643.687 Z " fill="rgb(255,255,255)"/></svg>