<?xml version="1.0" standalone="no"?><!-- Generator: Gravit.io --><svg xmlns="http://www.w3.org/2000/svg" xmlns:xlink="http://www.w3.org/1999/xlink" style="isolation:isolate" viewBox="0 0 30 30" width="30" height="30"><defs><clipPath id="_clipPath_rjos6RKBqONZTtA1I99EMVbzSBPWKzfo"><rect width="30" height="30"/></clipPath></defs><g clip-path="url(#_clipPath_rjos6RKBqONZTtA1I99EMVbzSBPWKzfo)"><path d=" M 15.003 7.311 C 10.747 7.311 7.313 10.743 7.313 15.001 C 7.313 19.257 10.747 22.691 15.003 22.691 C 19.26 22.691 22.693 19.257 22.693 15.001 C 22.693 10.743 19.26 7.311 15.003 7.311 Z  M 15.003 19.999 C 12.253 19.999 10.004 17.758 10.004 15.001 C 10.004 12.243 12.246 10.001 15.003 10.001 C 17.761 10.001 20.003 12.243 20.003 15.001 C 20.003 17.758 17.754 19.999 15.003 19.999 L 15.003 19.999 Z  M 24.801 6.996 C 24.801 7.993 23.998 8.79 23.008 8.79 C 22.011 8.79 21.214 7.987 21.214 6.996 C 21.214 6.005 22.017 5.203 23.008 5.203 C 23.998 5.203 24.801 6.005 24.801 6.996 Z  M 29.895 8.817 C 29.781 6.413 29.232 4.285 27.472 2.532 C 25.718 0.779 23.59 0.23 21.187 0.109 C 18.711 -0.031 11.289 -0.031 8.813 0.109 C 6.417 0.222 4.288 0.772 2.528 2.525 C 0.768 4.279 0.226 6.407 0.105 8.81 C -0.035 11.285 -0.035 18.707 0.105 21.185 C 0.219 23.587 0.768 25.716 2.528 27.469 C 4.288 29.222 6.41 29.771 8.813 29.892 C 11.289 30.032 18.711 30.032 21.187 29.892 C 23.59 29.778 25.718 29.228 27.472 27.469 C 29.225 25.716 29.774 23.587 29.895 21.185 C 30.035 18.707 30.035 11.293 29.895 8.817 L 29.895 8.817 Z  M 26.695 23.841 C 26.173 25.153 25.163 26.164 23.844 26.692 C 21.87 27.475 17.185 27.295 15.003 27.295 C 12.822 27.295 8.13 27.469 6.162 26.692 C 4.851 26.171 3.84 25.16 3.311 23.841 C 2.528 21.867 2.709 17.182 2.709 15.001 C 2.709 12.819 2.535 8.127 3.311 6.16 C 3.833 4.847 4.844 3.837 6.162 3.309 C 8.137 2.525 12.822 2.706 15.003 2.706 C 17.185 2.706 21.877 2.532 23.844 3.309 C 25.156 3.831 26.167 4.841 26.695 6.16 C 27.479 8.133 27.298 12.819 27.298 15.001 C 27.298 17.182 27.479 21.874 26.695 23.841 Z " fill="rgb(255,255,255)"/></g></svg>