<?xml version="1.0" standalone="no"?><!-- Generator: Gravit.io --><svg xmlns="http://www.w3.org/2000/svg" xmlns:xlink="http://www.w3.org/1999/xlink" style="isolation:isolate" viewBox="0 0 30 30" width="30" height="30"><defs><clipPath id="_clipPath_VzxVJFPQWsLQor7qz31Y6uv7RiX8wKcK"><rect width="30" height="30"/></clipPath></defs><g clip-path="url(#_clipPath_VzxVJFPQWsLQor7qz31Y6uv7RiX8wKcK)"><g><path d=" M 27.857 0 L 2.136 0 C 0.958 0 0 0.971 0 2.163 L 0 27.837 C 0 29.029 0.958 30 2.136 30 L 27.857 30 C 29.036 30 30 29.029 30 27.837 L 30 2.163 C 30 0.971 29.036 0 27.857 0 Z  M 9.067 25.714 L 4.621 25.714 L 4.621 11.397 L 9.074 11.397 L 9.074 25.714 L 9.067 25.714 Z  M 6.844 9.442 C 5.417 9.442 4.266 8.283 4.266 6.864 C 4.266 5.444 5.417 4.286 6.844 4.286 C 8.263 4.286 9.422 5.444 9.422 6.864 C 9.422 8.29 8.27 9.442 6.844 9.442 L 6.844 9.442 Z  M 25.734 25.714 L 21.288 25.714 L 21.288 18.75 C 21.288 17.089 21.254 14.953 18.978 14.953 C 16.661 14.953 16.306 16.761 16.306 18.629 L 16.306 25.714 L 11.859 25.714 L 11.859 11.397 L 16.125 11.397 L 16.125 13.353 L 16.185 13.353 C 16.781 12.228 18.234 11.042 20.397 11.042 C 24.897 11.042 25.734 14.009 25.734 17.866 L 25.734 25.714 L 25.734 25.714 Z " fill="rgb(255,255,255)"/></g></g></svg>