<?xml version="1.0" standalone="no"?><!-- Generator: Gravit.io --><svg xmlns="http://www.w3.org/2000/svg" xmlns:xlink="http://www.w3.org/1999/xlink" style="isolation:isolate" viewBox="0 0 120 120" width="120" height="120"><path d=" M 0 0 L 120 0 L 120 120 L 0 120 L 0 0 Z  M 57.66 84.012 L 51.9 69.036 L 31.164 69.036 L 25.404 84.012 L 19.788 84.012 L 38.94 35.988 L 44.124 35.988 L 63.204 84.012 L 57.66 84.012 Z  M 33.108 64.068 L 49.956 64.068 L 41.532 42.108 L 33.108 64.068 Z  M 70.764 84.012 L 70.764 35.988 L 100.212 35.988 L 100.212 40.884 L 75.948 40.884 L 75.948 57.444 L 97.26 57.444 L 97.26 62.484 L 75.948 62.484 L 75.948 84.012 L 70.764 84.012 Z " fill-rule="evenodd" fill="rgb(255,255,255)"/></svg>