<?xml version="1.0" standalone="no"?><!-- Generator: Gravit.io --><svg xmlns="http://www.w3.org/2000/svg" xmlns:xlink="http://www.w3.org/1999/xlink" style="isolation:isolate" viewBox="821.748 2553 33.996 34.148" width="33.996" height="34.148"><path d=" M 850.792 2557.965 C 847.626 2554.775 843.313 2552.986 838.819 2553 C 829.485 2553 821.892 2560.592 821.892 2569.918 C 821.883 2572.889 822.662 2575.808 824.149 2578.379 L 821.748 2587.148 L 830.722 2584.793 C 833.205 2586.145 835.985 2586.854 838.812 2586.857 L 838.819 2586.857 C 848.145 2586.857 855.737 2579.265 855.744 2569.932 C 855.758 2565.442 853.975 2561.132 850.792 2557.965 L 850.792 2557.965 Z  M 847.098 2575.969 C 846.747 2576.956 845.021 2577.908 844.246 2577.974 C 843.465 2578.047 842.738 2578.325 839.169 2576.923 C 834.865 2575.229 832.154 2570.82 831.941 2570.535 C 831.729 2570.257 830.219 2568.244 830.219 2566.167 C 830.219 2564.082 831.312 2563.062 831.697 2562.639 C 832.086 2562.215 832.544 2562.108 832.829 2562.108 C 833.106 2562.108 833.391 2562.108 833.635 2562.122 C 833.94 2562.129 834.271 2562.147 834.589 2562.85 C 834.965 2563.684 835.787 2565.775 835.894 2565.987 C 835.999 2566.199 836.072 2566.451 835.926 2566.729 C 835.787 2567.014 835.714 2567.187 835.509 2567.437 C 835.297 2567.681 835.065 2567.987 834.874 2568.171 C 834.662 2568.383 834.443 2568.615 834.687 2569.039 C 834.933 2569.462 835.78 2570.845 837.038 2571.964 C 838.653 2573.407 840.017 2573.851 840.44 2574.063 C 840.864 2574.275 841.108 2574.241 841.354 2573.956 C 841.604 2573.678 842.413 2572.726 842.697 2572.302 C 842.975 2571.879 843.26 2571.952 843.643 2572.091 C 844.033 2572.23 846.112 2573.255 846.536 2573.467 C 846.959 2573.678 847.237 2573.785 847.344 2573.958 C 847.449 2574.136 847.449 2574.983 847.098 2575.969 Z " fill="rgb(255,255,255)"/></svg>